<svg width="24" height="24" viewBox="0 0 24 24" fill="none" xmlns="http://www.w3.org/2000/svg">
<path d="M10.2444 17.4828C11.8533 17.4828 13.4161 16.9461 14.6854 15.9574L19.474 20.746C19.8317 21.0915 20.4017 21.0816 20.7472 20.7239C21.0842 20.3749 21.0842 19.8217 20.7472 19.4728L15.9586 14.6842C18.4118 11.5263 17.8406 6.97764 14.6827 4.52446C11.5248 2.07128 6.97612 2.64254 4.52294 5.80045C2.06976 8.95835 2.64102 13.507 5.79892 15.9602C7.07027 16.9479 8.63452 17.4836 10.2444 17.4828ZM6.39686 6.39562C8.52184 4.2706 11.9671 4.27056 14.0921 6.39554C16.2171 8.52052 16.2172 11.9658 14.0922 14.0908C11.9672 16.2158 8.52196 16.2159 6.39694 14.0909C6.3969 14.0908 6.3969 14.0908 6.39686 14.0908C4.27188 11.9813 4.25936 8.5486 6.36886 6.42362C6.37818 6.41426 6.3875 6.40494 6.39686 6.39562Z" fill="#0D0E10"/>
</svg>
