<svg width="152" height="52" viewBox="0 0 152 52" fill="none" xmlns="http://www.w3.org/2000/svg">
<g id="Group 140">
<rect id="Rectangle 25" width="51.6562" height="51.6562" rx="25.8281" fill="#007BFF"/>
<g id="Word Finder">
<path d="M74.5904 24.2989L71.6445 34.8436H69.1519L67.1729 27.3354L65.1032 34.8436L62.6256 34.8587L59.7855 24.2989H62.0516L63.9097 32.4869L66.0549 24.2989H68.4116L70.436 32.4416L72.3092 24.2989H74.5904Z" fill="#283551"/>
<path d="M79.6877 34.9796C78.882 34.9796 78.1569 34.8033 77.5123 34.4508C76.8677 34.0882 76.3591 33.5796 75.9865 32.925C75.6239 32.2704 75.4426 31.515 75.4426 30.659C75.4426 29.8029 75.629 29.0475 76.0016 28.3929C76.3843 27.7383 76.903 27.2347 77.5576 26.8822C78.2123 26.5196 78.9424 26.3383 79.7481 26.3383C80.5539 26.3383 81.284 26.5196 81.9387 26.8822C82.5933 27.2347 83.1069 27.7383 83.4796 28.3929C83.8623 29.0475 84.0536 29.8029 84.0536 30.659C84.0536 31.515 83.8573 32.2704 83.4645 32.925C83.0818 33.5796 82.558 34.0882 81.8933 34.4508C81.2387 34.8033 80.5035 34.9796 79.6877 34.9796ZM79.6877 33.1365C80.0704 33.1365 80.428 33.0459 80.7603 32.8646C81.1027 32.6732 81.3747 32.3912 81.5761 32.0186C81.7775 31.6459 81.8782 31.1927 81.8782 30.659C81.8782 29.8633 81.6667 29.254 81.2437 28.831C80.8308 28.3979 80.3222 28.1814 79.7179 28.1814C79.1136 28.1814 78.605 28.3979 78.1921 28.831C77.7893 29.254 77.5878 29.8633 77.5878 30.659C77.5878 31.4546 77.7842 32.0689 78.177 32.502C78.5799 32.925 79.0834 33.1365 79.6877 33.1365Z" fill="#283551"/>
<path d="M87.72 27.7735C87.992 27.3304 88.3445 26.9829 88.7775 26.7311C89.2207 26.4793 89.7242 26.3535 90.2882 26.3535V28.5742H89.7293C89.0646 28.5742 88.561 28.7303 88.2186 29.0425C87.8862 29.3547 87.72 29.8986 87.72 30.6741V34.8436H85.6051V26.4743H87.72V27.7735Z" fill="#283551"/>
<path d="M91.1689 30.6287C91.1689 29.7827 91.3351 29.0324 91.6675 28.3778C92.0099 27.7232 92.4732 27.2196 93.0573 26.8671C93.6414 26.5146 94.291 26.3383 95.0061 26.3383C95.55 26.3383 96.0686 26.4592 96.5621 26.7009C97.0556 26.9326 97.4484 27.2448 97.7405 27.6375V23.6644H99.8857V34.8436H97.7405V33.6048C97.4786 34.0177 97.111 34.3501 96.6377 34.6019C96.1643 34.8537 95.6154 34.9796 94.991 34.9796C94.286 34.9796 93.6414 34.7983 93.0573 34.4357C92.4732 34.0731 92.0099 33.5645 91.6675 32.9099C91.3351 32.2452 91.1689 31.4848 91.1689 30.6287ZM97.7556 30.659C97.7556 30.1453 97.6549 29.7072 97.4534 29.3446C97.252 28.972 96.9801 28.69 96.6377 28.4986C96.2952 28.2972 95.9276 28.1965 95.5349 28.1965C95.1421 28.1965 94.7795 28.2922 94.4472 28.4835C94.1148 28.6749 93.8429 28.9569 93.6314 29.3295C93.4299 29.6921 93.3292 30.1252 93.3292 30.6287C93.3292 31.1323 93.4299 31.5754 93.6314 31.9582C93.8429 32.3308 94.1148 32.6178 94.4472 32.8193C94.7896 33.0207 95.1521 33.1214 95.5349 33.1214C95.9276 33.1214 96.2952 33.0257 96.6377 32.8344C96.9801 32.6329 97.252 32.3509 97.4534 31.9884C97.6549 31.6157 97.7556 31.1726 97.7556 30.659Z" fill="#283551"/>
<path d="M112.062 24.2989V26.006H107.666V28.7101H111.035V30.387H107.666V34.8436H105.551V24.2989H112.062Z" fill="#283551"/>
<path d="M114.634 25.4772C114.262 25.4772 113.95 25.3614 113.698 25.1298C113.456 24.8881 113.335 24.591 113.335 24.2385C113.335 23.886 113.456 23.5939 113.698 23.3623C113.95 23.1206 114.262 22.9997 114.634 22.9997C115.007 22.9997 115.314 23.1206 115.556 23.3623C115.808 23.5939 115.934 23.886 115.934 24.2385C115.934 24.591 115.808 24.8881 115.556 25.1298C115.314 25.3614 115.007 25.4772 114.634 25.4772ZM115.677 26.4743V34.8436H113.562V26.4743H115.677Z" fill="#283551"/>
<path d="M122.404 26.3535C123.401 26.3535 124.207 26.6707 124.821 27.3052C125.436 27.9296 125.743 28.8058 125.743 29.9338V34.8436H123.628V30.2208C123.628 29.5561 123.462 29.0475 123.129 28.695C122.797 28.3325 122.344 28.1512 121.77 28.1512C121.186 28.1512 120.722 28.3325 120.38 28.695C120.048 29.0475 119.881 29.5561 119.881 30.2208V34.8436H117.766V26.4743H119.881V27.5167C120.163 27.1541 120.521 26.8721 120.954 26.6707C121.397 26.4592 121.881 26.3535 122.404 26.3535Z" fill="#283551"/>
<path d="M127.21 30.6287C127.21 29.7827 127.377 29.0324 127.709 28.3778C128.051 27.7232 128.515 27.2196 129.099 26.8671C129.683 26.5146 130.332 26.3383 131.048 26.3383C131.591 26.3383 132.11 26.4592 132.604 26.7009C133.097 26.9326 133.49 27.2448 133.782 27.6375V23.6644H135.927V34.8436H133.782V33.6048C133.52 34.0177 133.152 34.3501 132.679 34.6019C132.206 34.8537 131.657 34.9796 131.032 34.9796C130.327 34.9796 129.683 34.7983 129.099 34.4357C128.515 34.0731 128.051 33.5645 127.709 32.9099C127.377 32.2452 127.21 31.4848 127.21 30.6287ZM133.797 30.659C133.797 30.1453 133.696 29.7072 133.495 29.3446C133.293 28.972 133.022 28.69 132.679 28.4986C132.337 28.2972 131.969 28.1965 131.576 28.1965C131.184 28.1965 130.821 28.2922 130.489 28.4835C130.156 28.6749 129.884 28.9569 129.673 29.3295C129.471 29.6921 129.371 30.1252 129.371 30.6287C129.371 31.1323 129.471 31.5754 129.673 31.9582C129.884 32.3308 130.156 32.6178 130.489 32.8193C130.831 33.0207 131.194 33.1214 131.576 33.1214C131.969 33.1214 132.337 33.0257 132.679 32.8344C133.022 32.6329 133.293 32.3509 133.495 31.9884C133.696 31.6157 133.797 31.1726 133.797 30.659Z" fill="#283551"/>
<path d="M145.773 30.4777C145.773 30.7798 145.753 31.0517 145.712 31.2934H139.594C139.644 31.8977 139.856 32.3711 140.229 32.7135C140.601 33.0559 141.059 33.2271 141.603 33.2271C142.389 33.2271 142.948 32.8898 143.28 32.215H145.561C145.32 33.0207 144.856 33.6854 144.172 34.2091C143.487 34.7227 142.646 34.9796 141.649 34.9796C140.843 34.9796 140.118 34.8033 139.473 34.4508C138.839 34.0882 138.34 33.5796 137.978 32.925C137.625 32.2704 137.449 31.515 137.449 30.659C137.449 29.7928 137.625 29.0324 137.978 28.3778C138.33 27.7232 138.824 27.2196 139.458 26.8671C140.093 26.5146 140.823 26.3383 141.649 26.3383C142.444 26.3383 143.154 26.5096 143.779 26.852C144.413 27.1944 144.902 27.6829 145.244 28.3174C145.597 28.9418 145.773 29.6619 145.773 30.4777ZM143.582 29.8734C143.572 29.3295 143.376 28.8965 142.993 28.5742C142.61 28.2418 142.142 28.0757 141.588 28.0757C141.065 28.0757 140.621 28.2368 140.259 28.5591C139.906 28.8713 139.69 29.3094 139.609 29.8734H143.582Z" fill="#283551"/>
<path d="M149.432 27.7735C149.704 27.3304 150.056 26.9829 150.489 26.7311C150.932 26.4793 151.436 26.3535 152 26.3535V28.5742H151.441C150.776 28.5742 150.273 28.7303 149.93 29.0425C149.598 29.3547 149.432 29.8986 149.432 30.6741V34.8436H147.317V26.4743H149.432V27.7735Z" fill="#283551"/>
</g>
<path id="614353_12084921_2313227_c40bcd1e_image 1 (Traced)" fill-rule="evenodd" clip-rule="evenodd" d="M33.3814 16.8028C32.2984 17.8818 32.8694 18.8519 35.5991 20.5698C38.6284 22.4756 42.2533 26.0633 43.4185 28.3085C44.6256 30.6339 44.4809 32.7512 43.0108 34.2803C41.2754 36.0845 38.5182 37.0678 36.2084 36.7062C33.6273 36.3016 30.0631 33.826 28.5602 31.3933C26.4808 28.0279 25.9848 27.462 24.8729 27.1839C23.0953 26.7394 21.5253 27.7292 20.0143 30.246C19.2396 31.5362 18.4611 32.5916 18.2837 32.5916C18.1063 32.5916 17.7153 31.1324 17.4143 29.3493C16.8893 26.2357 14.6506 21.0306 13.7024 20.7187C13.4276 20.6286 13.3217 22.2465 13.41 25.1902C13.4914 27.9159 13.2739 31.6155 12.8778 34.234C12.2818 38.1756 12.2792 38.8025 12.8519 39.906C14.5459 43.1706 17.7889 42.6343 22.5627 38.3005L23.6724 37.2935L24.5004 38.216C26.9218 40.9125 31.9996 42.8908 36.4848 42.8844C40.086 42.8797 42.9432 41.7474 45.7667 39.2054C50.7553 34.715 50.5069 29.0057 45.0678 23.1526L42.7761 20.686L48.9089 20.4702C52.2814 20.351 56.107 19.991 57.4096 19.6696C59.7345 19.0956 59.6285 19.0801 51.5963 18.8115C44.0391 18.5588 40.4736 18.0869 35.882 16.732C34.0071 16.1785 34.0079 16.1785 33.3814 16.8028Z" fill="white"/>
</g>
</svg>
