<svg width="185" height="163" viewBox="0 0 185 163" fill="none" xmlns="http://www.w3.org/2000/svg">
<g id="Group 139">
<rect id="Rectangle 25" width="162.739" height="162.739" rx="81.3693" fill="#007BFF"/>
<path id="614353_12084921_2313227_c40bcd1e_image 1 (Traced)" fill-rule="evenodd" clip-rule="evenodd" d="M105.166 52.9357C101.754 56.3351 103.553 59.3912 112.153 64.8033C121.696 70.8074 133.116 82.1101 136.787 89.1834C140.59 96.5094 140.134 103.18 135.502 107.997C130.035 113.681 121.349 116.779 114.072 115.64C105.941 114.365 94.7119 106.566 89.9774 98.9019C83.4263 88.2994 81.8635 86.5165 78.3607 85.6407C72.7607 84.2403 67.8144 87.3586 63.0541 95.2875C60.6136 99.352 58.1608 102.677 57.6019 102.677C57.043 102.677 55.8112 98.0801 54.8629 92.4625C53.2092 82.6535 46.1562 66.255 43.1689 65.2723C42.3034 64.9885 41.9697 70.0856 42.2478 79.3594C42.5042 87.9466 41.8191 99.6021 40.571 107.851C38.6935 120.269 38.6853 122.244 40.4896 125.72C45.8265 136.005 56.0431 134.316 71.0825 120.662L74.5785 117.49L77.1872 120.396C84.8155 128.891 100.813 135.124 114.943 135.104C126.288 135.089 135.289 131.522 144.185 123.513C159.901 109.367 159.118 91.3799 141.983 72.9404L134.763 65.1696L154.084 64.4897C164.709 64.1139 176.761 62.9799 180.865 61.9675C188.189 60.159 187.855 60.1103 162.551 59.2642C138.742 58.468 127.509 56.9812 113.044 52.7126C107.137 50.969 107.14 50.969 105.166 52.9357Z" fill="white"/>
</g>
</svg>
